<svg xmlns="http://www.w3.org/2000/svg" xmlns:xlink="http://www.w3.org/1999/xlink" version="1.1" x="0px" y="0px" viewBox="0 0 100 125" enable-background="new 0 0 100 100" xml:space="preserve"><g><path d="M94.234,39.283L84.115,61.036c-0.28,0.907-1.64,3.338-4.544,3.338h-40.08c-3.067,0-5.103-2.2-5.518-3.116l-7.061-22.485   c-1.9-6.27,1.842-8.268,4.417-8.268c2.576,0,51.405,0,57.917,0C95.035,30.504,95.807,35.521,94.234,39.283L94.234,39.283z    M32.267,36.311c0.039,0.212,0.096,0.473,0.193,0.781l6.724,21.395c0.096,0.058,0.202,0.097,0.308,0.097h39.367l10.061-21.608   c0.087-0.251,0.154-0.472,0.184-0.666H32.267L32.267,36.311z M44.575,86.425c-2.827,0-5.113-2.287-5.113-5.113   s2.286-5.113,5.113-5.113c2.836,0,5.122,2.287,5.122,5.113S47.411,86.425,44.575,86.425L44.575,86.425z M78.452,86.425   c-2.826,0-5.112-2.287-5.112-5.113s2.286-5.113,5.112-5.113c2.837,0,5.123,2.287,5.123,5.113S81.289,86.425,78.452,86.425   L78.452,86.425z M85.071,75.669H46.021c-7.842,0-10.958-7.418-11.093-7.736c-0.039-0.087-0.067-0.184-0.097-0.27   c0,0-12.27-41.76-13.216-44.972c-0.897-3.038-1.64-3.472-3.945-3.472H7.88c-1.563,0-2.826-1.254-2.826-2.817   c0-1.563,1.263-2.826,2.826-2.826h9.791c6.299,0,8.277,3.8,9.357,7.514c0.917,3.097,12.309,41.865,13.177,44.807   c0.298,0.647,2.103,4.129,5.816,4.129h39.049c1.563,0,2.826,1.263,2.826,2.817C87.897,74.405,86.633,75.669,85.071,75.669   L85.071,75.669z"/></g></svg>