<?xml version="1.0" encoding="utf-8"?>
<!-- Generator: Adobe Illustrator 21.0.0, SVG Export Plug-In . SVG Version: 6.00 Build 0)  -->
<svg version="1.1" id="Слой_1" xmlns="http://www.w3.org/2000/svg" xmlns:xlink="http://www.w3.org/1999/xlink" x="0px" y="0px"
	 viewBox="0 0 89.9 72.8" style="enable-background:new 0 0 89.9 72.8;" xml:space="preserve">
<g>
	<path d="M89.2,25.7L79.1,47.5c-0.3,0.9-1.6,3.3-4.5,3.3H34.4c-3.1,0-5.1-2.2-5.5-3.1l-7.1-22.5c-1.9-6.3,1.8-8.3,4.4-8.3
		c2.6,0,51.4,0,57.9,0C90,16.9,90.8,21.9,89.2,25.7L89.2,25.7z M27.2,22.7c0,0.2,0.1,0.5,0.2,0.8l6.7,21.4c0.1,0.1,0.2,0.1,0.3,0.1
		h39.4l10.1-21.6c0.1-0.3,0.2-0.5,0.2-0.7L27.2,22.7L27.2,22.7z M39.5,72.8c-2.8,0-5.1-2.3-5.1-5.1s2.3-5.1,5.1-5.1
		c2.8,0,5.1,2.3,5.1,5.1S42.4,72.8,39.5,72.8L39.5,72.8z M73.4,72.8c-2.8,0-5.1-2.3-5.1-5.1s2.3-5.1,5.1-5.1c2.8,0,5.1,2.3,5.1,5.1
		S76.2,72.8,73.4,72.8L73.4,72.8z M80,62.1H41c-7.8,0-11-7.4-11.1-7.7c0-0.1-0.1-0.2-0.1-0.3c0,0-12.3-41.8-13.2-45
		c-0.9-3-1.6-3.5-3.9-3.5H2.8C1.3,5.6,0,4.4,0,2.8S1.3,0,2.8,0h9.8c6.3,0,8.3,3.8,9.4,7.5c0.9,3.1,12.3,41.9,13.2,44.8
		c0.3,0.6,2.1,4.1,5.8,4.1h39c1.6,0,2.8,1.3,2.8,2.8C82.8,60.8,81.6,62.1,80,62.1L80,62.1z"/>
</g>
</svg>
