<?xml version="1.0" encoding="iso-8859-1"?>
<!-- Generator: Adobe Illustrator 19.0.0, SVG Export Plug-In . SVG Version: 6.00 Build 0)  -->
<svg version="1.1" id="Capa_1" xmlns="http://www.w3.org/2000/svg" xmlns:xlink="http://www.w3.org/1999/xlink" x="0px" y="0px"
	 viewBox="0 0 185.022 185.022" style="enable-background:new 0 0 185.022 185.022;" xml:space="preserve">
<g>
	<path style="fill:#010002;" d="M107.399,174.245c-0.772,0-1.544-0.238-2.198-0.698c-0.557-0.394-55.812-39.45-76.714-45.049l0,0
		c-8.947-2.376-23.839,0.349-23.987,0.371c-1.121,0.223-2.257-0.089-3.126-0.809C0.501,127.339,0,126.263,0,125.134V60.193
		c0-1.121,0.494-2.183,1.348-2.903c0.854-0.728,2.012-1.047,3.085-0.846c0.156,0.022,15.114,2.502,24.036,0.082
		c20.887-5.665,76.18-44.663,76.736-45.057c1.162-0.817,2.681-0.913,3.943-0.275c1.262,0.653,2.053,1.96,2.053,3.378v155.871
		c0,1.418-0.795,2.725-2.057,3.379C108.595,174.104,107.997,174.245,107.399,174.245z M19.217,119.929
		c3.846,0,7.819,0.312,11.223,1.218c0.004,0,0.004,0,0.007,0c18.147,4.864,57.939,31.528,73.15,42.012V21.849
		c-15.21,10.462-55.013,37.096-73.139,42.012c-7.269,1.983-17.182,1.314-22.855,0.683v56.172
		C10.626,120.33,14.839,119.929,19.217,119.929z"/>
	<polygon style="fill:#010002;" points="185.022,116.236 161.285,92.505 185.019,68.771 179.643,63.395 155.908,87.13 
		132.17,63.399 126.794,68.775 150.532,92.506 126.797,116.24 132.174,121.617 155.909,97.882 179.647,121.613 	"/>
</g>
<g>
</g>
<g>
</g>
<g>
</g>
<g>
</g>
<g>
</g>
<g>
</g>
<g>
</g>
<g>
</g>
<g>
</g>
<g>
</g>
<g>
</g>
<g>
</g>
<g>
</g>
<g>
</g>
<g>
</g>
</svg>
