<?xml version="1.0" encoding="UTF-8"?><!DOCTYPE svg PUBLIC "-//W3C//DTD SVG 1.1//EN" "http://www.w3.org/Graphics/SVG/1.1/DTD/svg11.dtd"><svg xmlns="http://www.w3.org/2000/svg"><defs>
        <style>
            .cls-1{fill:#fff;fill-rule:evenodd}
        </style>
    </defs><symbol id="icon-arrow-r" viewBox="0 0 451.846 451.847">
    <path d="M345.441 248.292L151.154 442.573c-12.359 12.365-32.397 12.365-44.75 0-12.354-12.354-12.354-32.391 0-44.744L278.318 225.92 106.409 54.017c-12.354-12.359-12.354-32.394 0-44.748 12.354-12.359 32.391-12.359 44.75 0l194.287 194.284c6.177 6.18 9.262 14.271 9.262 22.366 0 8.099-3.091 16.196-9.267 22.373z"/>
</symbol><symbol id="icon-arrow" viewBox="0 0 63.2 33.4">
    <path d="M59.8.8L31.5 28.9 3.4.6c-.8-.8-2-.8-2.8 0s-.8 2 0 2.8l29.2 29.4c.4.4.8.6 1.3.6H31.7c.5 0 1.1-.2 1.5-.6L62.6 3.7c.8-.8.8-2 0-2.8-.7-.8-2-.8-2.8-.1z"/>
</symbol><symbol id="icon-cart" viewBox="0 0 89.9 72.8">
    <path d="M89.2 25.7L79.1 47.5c-.3.9-1.6 3.3-4.5 3.3H34.4c-3.1 0-5.1-2.2-5.5-3.1l-7.1-22.5c-1.9-6.3 1.8-8.3 4.4-8.3h57.9c5.9 0 6.7 5 5.1 8.8zm-62-3c0 .2.1.5.2.8l6.7 21.4c.1.1.2.1.3.1h39.4l10.1-21.6c.1-.3.2-.5.2-.7H27.2zm12.3 50.1c-2.8 0-5.1-2.3-5.1-5.1s2.3-5.1 5.1-5.1 5.1 2.3 5.1 5.1-2.2 5.1-5.1 5.1zm33.9 0c-2.8 0-5.1-2.3-5.1-5.1s2.3-5.1 5.1-5.1 5.1 2.3 5.1 5.1-2.3 5.1-5.1 5.1zM80 62.1H41c-7.8 0-11-7.4-11.1-7.7 0-.1-.1-.2-.1-.3 0 0-12.3-41.8-13.2-45-.9-3-1.6-3.5-3.9-3.5H2.8C1.3 5.6 0 4.4 0 2.8S1.3 0 2.8 0h9.8c6.3 0 8.3 3.8 9.4 7.5.9 3.1 12.3 41.9 13.2 44.8.3.6 2.1 4.1 5.8 4.1h39c1.6 0 2.8 1.3 2.8 2.8 0 1.6-1.2 2.9-2.8 2.9z"/>
</symbol><symbol id="icon-close" viewBox="0 0 18 18">
    <title>
        Close Hover
    </title>
    <path d="M0 17.14l.86.86L9 9.86 17.14 18l.86-.86L9.86 9 18 .86 17.14 0 9 8.14.86 0 0 .86 8.14 9z"/>
</symbol><symbol id="icon-decrease" viewBox="0 0 15 15">
    <g fill-rule="evenodd">
        <circle cx="7.5" cy="7.5" r="7.5" fill="currentColor"/>
        <path d="M3 8V7h9v1z"/>
    </g>
</symbol><symbol id="icon-fb" viewBox="0 0 96.124 96.123">
    <path d="M72.089.02L59.624 0C45.62 0 36.57 9.285 36.57 23.656v10.907H24.037a1.96 1.96 0 0 0-1.96 1.961v15.803a1.96 1.96 0 0 0 1.96 1.96H36.57v39.876a1.96 1.96 0 0 0 1.96 1.96h16.352a1.96 1.96 0 0 0 1.96-1.96V54.287h14.654a1.96 1.96 0 0 0 1.96-1.96l.006-15.803a1.963 1.963 0 0 0-1.961-1.961H56.842v-9.246c0-4.444 1.059-6.7 6.848-6.7l8.397-.003a1.96 1.96 0 0 0 1.959-1.96V1.98A1.96 1.96 0 0 0 72.089.02z"/>
</symbol><symbol id="icon-heart" viewBox="0 0 471.7 414.7">
    <path d="M433.6 38.5C408.9 13.8 376.2.3 341.3.3s-67.7 13.6-92.4 38.3L236 51.5l-13.1-13.1C198.2 13.7 165.3 0 130.4 0 95.6 0 62.8 13.6 38.2 38.2 13.5 62.9-.1 95.7 0 130.6c0 34.9 13.7 67.6 38.4 92.3l187.8 187.8c2.6 2.6 6.1 4 9.5 4s6.9-1.3 9.5-3.9l188.2-187.5c24.7-24.7 38.3-57.5 38.3-92.4.1-34.9-13.4-67.7-38.1-92.4zm-19.2 165.7l-178.7 178L57.4 203.9C37.8 184.3 27 158.3 27 130.6s10.7-53.7 30.3-73.2c19.5-19.5 45.5-30.3 73.1-30.3 27.7 0 53.8 10.8 73.4 30.4l22.6 22.6c5.3 5.3 13.8 5.3 19.1 0l22.4-22.4c19.6-19.6 45.7-30.4 73.3-30.4 27.6 0 53.6 10.8 73.2 30.3 19.6 19.6 30.3 45.6 30.3 73.3.1 27.7-10.7 53.7-30.3 73.3z"/>
</symbol><symbol id="icon-increase" viewBox="0 0 15 15">
    <g fill-rule="evenodd">
        <circle cx="7.5" cy="7.5" r="7.5" fill="currentColor"/>
        <path d="M8 7V3H7v4H3v1h4v4h1V8h4V7H8z"/>
    </g>
</symbol><symbol id="icon-inst" viewBox="0 0 438.536 438.536">
    <path d="M421.981 16.562C410.941 5.519 397.711 0 382.298 0H56.248C40.83 0 27.604 5.521 16.561 16.562 5.52 27.6.001 40.828.001 56.243V382.29c0 15.413 5.518 28.644 16.56 39.683 11.043 11.04 24.272 16.563 39.687 16.563h326.046c15.41 0 28.644-5.523 39.684-16.563 11.043-11.039 16.557-24.27 16.557-39.683V56.243c-.001-15.418-5.514-28.639-16.554-39.681zM157.462 158.025c17.224-16.652 37.924-24.982 62.097-24.982 24.36 0 45.153 8.33 62.381 24.982 17.228 16.655 25.837 36.785 25.837 60.386 0 23.598-8.609 43.729-25.837 60.379-17.228 16.659-38.014 24.988-62.381 24.988-24.172 0-44.87-8.336-62.097-24.988-17.228-16.652-25.841-36.781-25.841-60.379 0-23.601 8.613-43.73 25.841-60.386zm231.403 212.564c0 4.945-1.718 9.083-5.141 12.416-3.433 3.33-7.519 4.996-12.282 4.996h-305.2c-4.948 0-9.091-1.666-12.419-4.996-3.333-3.326-4.998-7.471-4.998-12.416V185.575H89.08c-3.805 11.993-5.708 24.462-5.708 37.402 0 36.553 13.322 67.715 39.969 93.511 26.65 25.786 58.721 38.685 96.217 38.685 24.744 0 47.583-5.903 68.527-17.703 20.937-11.807 37.486-27.839 49.676-48.112 12.183-20.272 18.274-42.4 18.274-66.38 0-12.94-1.91-25.406-5.715-37.402h38.547V370.59h-.002zm0-254.963c0 5.52-1.903 10.184-5.716 13.99-3.805 3.809-8.466 5.711-13.989 5.711h-49.676c-5.517 0-10.185-1.903-13.99-5.711-3.806-3.806-5.708-8.47-5.708-13.99V68.522c0-5.33 1.902-9.945 5.708-13.848 3.806-3.901 8.474-5.854 13.99-5.854h49.676c5.523 0 10.185 1.952 13.989 5.854 3.812 3.903 5.716 8.518 5.716 13.848v47.104z"/>
</symbol><symbol id="icon-mail" viewBox="0 0 612 401.2">
    <path d="M612 50.8c0-13.1-5.2-24.9-13.4-33.9l-.3-.6c-.1-.2-.3-.2-.5-.4-9.4-9.8-22.6-16-37.2-16H51.4C36.7 0 23.6 6.2 14.2 16c-.1.1-.3.2-.5.4l-.3.6C5.2 26 0 37.8 0 50.8v299.5c0 13.4 5.4 25.5 14 34.6.2.2.2.4.4.6.1.1.1.1.2.1 9.4 9.5 22.4 15.5 36.9 15.5h509.1c14.5 0 27.5-6 36.9-15.5.1-.1.1-.1.2-.1.2-.2.2-.4.4-.6 8.6-9.1 14-21.2 14-34.6L612 50.8zm-200.3 134L588.1 38.5c1.7 3.8 2.8 7.9 2.8 12.3v299.5c0 4-.8 7.7-2.2 11.2l-177-176.7zM560.6 20.9c4.4 0 8.6 1 12.4 2.7L306 245 39 23.7C42.8 22 47 21 51.4 21h509.2zM23.5 361.6c-1.4-3.5-2.2-7.2-2.2-11.2V50.8c0-4.4 1-8.5 2.8-12.3l176.4 146.2-177 176.9zm27.9 18.6c-4.9 0-9.5-1.3-13.5-3.3l178.7-178.7 82.6 68.5c2 1.6 4.4 2.5 6.8 2.5s4.8-.8 6.8-2.5l82.6-68.5 178.7 178.7c-4.1 2-8.7 3.3-13.6 3.3H51.4z"/>
</symbol><symbol id="icon-mute" viewBox="0 0 185.022 185.022">
    <g>
        <path d="M107.399 174.245a3.828 3.828 0 0 1-2.198-.698c-.557-.394-55.812-39.45-76.714-45.049-8.947-2.376-23.839.349-23.987.371a3.744 3.744 0 0 1-3.126-.809A3.795 3.795 0 0 1 0 125.134V60.193c0-1.121.494-2.183 1.348-2.903.854-.728 2.012-1.047 3.085-.846.156.022 15.114 2.502 24.036.082 20.887-5.665 76.18-44.663 76.736-45.057a3.844 3.844 0 0 1 3.943-.275 3.806 3.806 0 0 1 2.053 3.378v155.871a3.813 3.813 0 0 1-2.057 3.379 3.816 3.816 0 0 1-1.745.423zm-88.182-54.316c3.846 0 7.819.312 11.223 1.218h.007c18.147 4.864 57.939 31.528 73.15 42.012V21.849c-15.21 10.462-55.013 37.096-73.139 42.012-7.269 1.983-17.182 1.314-22.855.683v56.172c3.023-.386 7.236-.787 11.614-.787z"/>
        <path d="M185.022 116.236l-23.737-23.731 23.734-23.734-5.376-5.376-23.735 23.735-23.738-23.731-5.376 5.376 23.738 23.731-23.735 23.734 5.377 5.377 23.735-23.735 23.738 23.731z"/>
    </g>
</symbol><symbol id="icon-od" viewBox="0 0 15.25 25.39">
    
    <title>
        od
    </title>
    <g id="&#x421;&#x43B;&#x43E;&#x439;_2" data-name="&#x421;&#x43B;&#x43E;&#x439; 2">
        <g id="&#x421;&#x43B;&#x43E;&#x439;_1-2" data-name="&#x421;&#x43B;&#x43E;&#x439; 1">
            <path class="cls-1" d="M14.85 15.36a7.87 7.87 0 0 1-2.78 1.81 14.75 14.75 0 0 1-3.17.71 3.42 3.42 0 0 1 .34.37c1.47 1.45 2.95 2.92 4.39 4.39a1.5 1.5 0 0 1 .34 1.7 1.74 1.74 0 0 1-1.64 1 1.61 1.61 0 0 1-1-.51c-1.13-1.1-2.26-2.18-3.33-3.32-.31-.34-.45-.26-.74 0-1.11 1.17-2.26 2.3-3.38 3.41a1.4 1.4 0 0 1-1.7.31 1.73 1.73 0 0 1-1-1.59 1.58 1.58 0 0 1 .54-1.08c1.45-1.44 2.9-2.89 4.28-4.33a3.82 3.82 0 0 0 .34-.34A9.8 9.8 0 0 1 1.1 16c-.17-.17-.37-.31-.54-.45a1.5 1.5 0 0 1-.23-2.13 1.52 1.52 0 0 1 2-.45 3.37 3.37 0 0 1 .43.26 8.61 8.61 0 0 0 9.55.09 2.46 2.46 0 0 1 .94-.48 1.47 1.47 0 0 1 1.67.68 1.38 1.38 0 0 1-.09 1.84z"/>
            <path class="cls-1" d="M7.65 0a6.42 6.42 0 1 1-6.43 6.41A6.42 6.42 0 0 1 7.65 0zm0 9.58a3.15 3.15 0 1 0-3.17-3.12 3.15 3.15 0 0 0 3.17 3.12z"/>
        </g>
    </g>
</symbol><symbol id="icon-play" viewBox="0 0 314 314">
    <path d="M37.191 314c-13.138 0-19.018-11.259-19.018-22.416V22.416C18.172 11.259 24.052 0 37.189 0c4.253 0 8.663 1.302 13.11 3.87l233.108 134.58c7.894 4.559 12.42 11.319 12.42 18.549 0 7.23-4.526 13.99-12.419 18.548L50.298 310.132C45.852 312.698 41.442 314 37.191 314zm-.002-300c-4.365 0-5.017 5.272-5.017 8.416v269.168c0 3.143.652 8.416 5.018 8.416 1.211 0 3.255-.346 6.108-1.993l233.109-134.584c3.394-1.959 5.42-4.361 5.42-6.424s-2.026-4.465-5.421-6.425L43.298 15.994C40.445 14.346 38.401 14 37.189 14z"/>
</symbol><symbol id="icon-tw" viewBox="0 0 612 612">
    <path d="M612 116.258a250.714 250.714 0 0 1-72.088 19.772c25.929-15.527 45.777-40.155 55.184-69.411-24.322 14.379-51.169 24.82-79.775 30.48-22.907-24.437-55.49-39.658-91.63-39.658-69.334 0-125.551 56.217-125.551 125.513 0 9.828 1.109 19.427 3.251 28.606-104.326-5.24-196.835-55.223-258.75-131.174-10.823 18.51-16.98 40.078-16.98 63.101 0 43.559 22.181 81.993 55.835 104.479a125.556 125.556 0 0 1-56.867-15.756v1.568c0 60.806 43.291 111.554 100.693 123.104-10.517 2.83-21.607 4.398-33.08 4.398-8.107 0-15.947-.803-23.634-2.333 15.985 49.907 62.336 86.199 117.253 87.194-42.947 33.654-97.099 53.655-155.916 53.655-10.134 0-20.116-.612-29.944-1.721 55.567 35.681 121.536 56.485 192.438 56.485 230.948 0 357.188-191.291 357.188-357.188l-.421-16.253c24.666-17.593 46.005-39.697 62.794-64.861z"/>
</symbol><symbol id="icon-vk" viewBox="0 0 304.36 304.36">
    <path d="M261.945 175.576c10.096 9.857 20.752 19.131 29.807 29.982 4 4.822 7.787 9.798 10.684 15.394 4.105 7.955.387 16.709-6.746 17.184l-44.34-.02c-11.436.949-20.559-3.655-28.23-11.474-6.139-6.253-11.824-12.908-17.727-19.372-2.42-2.642-4.953-5.128-7.979-7.093-6.053-3.929-11.307-2.726-14.766 3.587-3.523 6.421-4.322 13.531-4.668 20.687-.475 10.441-3.631 13.186-14.119 13.664-22.414 1.057-43.686-2.334-63.447-13.641-17.422-9.968-30.932-24.04-42.691-39.971-22.895-31.021-40.428-65.108-56.186-100.15C-2.01 76.458.584 72.22 9.295 72.07c14.465-.281 28.928-.261 43.41-.02 5.879.086 9.771 3.458 12.041 9.012 7.826 19.243 17.402 37.551 29.422 54.521 3.201 4.518 6.465 9.036 11.113 12.216 5.142 3.521 9.057 2.354 11.476-3.374 1.535-3.632 2.207-7.544 2.553-11.434 1.146-13.383 1.297-26.743-.713-40.079-1.234-8.323-5.922-13.711-14.227-15.286-4.238-.803-3.607-2.38-1.555-4.799 3.564-4.172 6.916-6.769 13.598-6.769h50.111c7.889 1.557 9.641 5.101 10.721 13.039l.043 55.663c-.086 3.073 1.535 12.192 7.07 14.226 4.43 1.448 7.35-2.096 10.008-4.905 11.998-12.734 20.561-27.783 28.211-43.366 3.395-6.852 6.314-13.968 9.143-21.078 2.096-5.276 5.385-7.872 11.328-7.757l48.229.043c1.43 0 2.877.021 4.262.258 8.127 1.385 10.354 4.881 7.844 12.817-3.955 12.451-11.65 22.827-19.174 33.251-8.043 11.129-16.645 21.877-24.621 33.072-7.328 10.223-6.746 15.376 2.357 24.255zm0 0" fill-rule="evenodd" clip-rule="evenodd"/>
</symbol></svg>